Coordinates
version=1
nRows=11
nColumns=40
inDegrees=yes

Units are S.I. units (second, meters, Newtons, ...)
Angles are in degrees.

endheader
time	pelvis_tilt	pelvis_list	pelvis_rotation	pelvis_tx	pelvis_ty	pelvis_tz	hip_flexion_r	hip_adduction_r	hip_rotation_r	knee_angle_r	knee_angle_r_beta	ankle_angle_r	subtalar_angle_r	mtp_angle_r	hip_flexion_l	hip_adduction_l	hip_rotation_l	knee_angle_l	knee_angle_l_beta	ankle_angle_l	subtalar_angle_l	mtp_angle_l	lumbar_extension	lumbar_bending	lumbar_rotation	arm_flex_r	arm_add_r	arm_rot_r	elbow_flex_r	pro_sup_r	wrist_flex_r	wrist_dev_r	arm_flex_l	arm_add_l	arm_rot_l	elbow_flex_l	pro_sup_l	wrist_flex_l	wrist_dev_l
     41.15500000	     -2.25074498	     -5.27855883	      8.90942885	      1.08536361	      0.92278029	      0.45904557	      0.14088346	      3.24980064	    -16.86298599	     12.57074739	     12.57074739	     16.64088015	      0.38200690	     -5.95456271	     28.50611713	     -7.42613665	      0.05819028	     22.23471678	     22.23471678	      2.82160873	    -10.08745360	      3.45850963	     -8.52383896	      4.97229415	      4.76962793	     32.02389308	    -16.59971503	     -6.25254740	    105.59301195	     44.12414073	      0.00000000	      0.00000000	     -7.93842002	     -6.58642922	     -9.72832132	     25.31759722	     46.31338521	      0.00000000	      0.00000000
     41.16821429	     -2.25135884	     -5.26334575	      8.89175068	      1.08671502	      0.92197370	      0.45686631	     -0.32926364	      3.14756342	    -16.74517782	     12.60696234	     12.60696234	     16.90738762	      0.35097274	     -5.97945212	     27.97290868	     -7.33459439	      0.01950782	     22.68182676	     22.68182676	      2.87945556	    -10.36915289	      3.34995013	     -8.30625212	      4.83588584	      4.72229111	     31.78308137	    -16.37085736	     -6.13993780	    105.56567975	     44.12324224	      0.00000000	      0.00000000	     -7.69994293	     -6.83120248	     -9.75740569	     25.37561692	     46.32338032	      0.00000000	      0.00000000
     41.18142857	     -2.19440211	     -5.19848085	      8.91654311	      1.08795181	      0.92139603	      0.45446164	     -0.82650535	      2.97645802	    -16.65820543	     12.70469302	     12.70469302	     17.11510519	      0.26104498	     -5.93240647	     27.49156985	     -7.15308569	      0.10563203	     23.18730987	     23.18730987	      3.02166562	    -10.72538903	      3.17837842	     -8.20969902	      4.68312224	      4.62613312	     31.42877540	    -16.16638170	     -6.02374665	    105.47642260	     44.12428530	      0.00000000	      0.00000000	     -7.35382493	     -7.05075773	     -9.78437272	     25.47776359	     46.33459634	      0.00000000	      0.00000000
     41.19464286	     -2.14470614	     -5.11026609	      8.97176096	      1.08900689	      0.92098368	      0.45182616	     -1.25796820	      2.74951220	    -16.58012125	     12.89760956	     12.89760956	     17.28734560	      0.11394318	     -5.82433673	     27.09871233	     -6.90359980	      0.28173650	     23.68055871	     23.68055871	      3.24613671	    -11.12050128	      2.96654928	     -8.15261998	      4.52491074	      4.50874218	     30.98598255	    -16.03337236	     -5.93154597	    105.26963789	     44.12997693	      0.00000000	      0.00000000	     -6.90381498	     -7.27313074	     -9.81209586	     25.62216829	     46.34751245	      0.00000000	      0.00000000
     41.20785714	     -2.10720536	     -5.00300231	      9.00311328	      1.08984836	      0.92073595	      0.44899460	     -1.53495421	      2.44301653	    -16.44431618	     13.35081196	     13.35081196	     17.50653279	     -0.14072496	     -5.54470861	     26.80159150	     -6.59332592	      0.57781796	     24.20343746	     24.20343746	      3.50741442	    -11.72081021	      2.72443348	     -8.11539123	      4.34030401	      4.48043527	     30.39202857	    -16.05455848	     -5.91952892	    104.72111368	     44.15241035	      0.00000000	      0.00000000	     -6.34133216	     -7.49202771	     -9.85453404	     25.79367317	     46.36392120	      0.00000000	      0.00000000
     41.22107143	     -2.07495172	     -4.87092653	      9.13285297	      1.09049656	      0.92071930	      0.44586969	     -1.80946005	      2.09488201	    -16.44086001	     13.77721409	     13.77721409	     17.58751116	     -0.37358841	     -5.35953559	     26.55231086	     -6.22986210	      0.85127687	     24.67571395	     24.67571395	      3.88790578	    -12.04073919	      2.47937435	     -8.12331853	      4.15998512	      4.33014018	     29.78211159	    -15.98923107	     -5.86128062	    104.20595269	     44.16869941	      0.00000000	      0.00000000	     -5.60190814	     -7.69319934	     -9.86582331	     26.04234790	     46.37839100	      0.00000000	      0.00000000
     41.23428571	     -2.05326790	     -4.78515364	      9.22449227	      1.09101990	      0.92090392	      0.44263896	     -2.03983945	      1.77130926	    -16.43570312	     14.21937398	     14.21937398	     17.55094477	     -0.54812104	     -5.25419616	     26.31021169	     -5.92330425	      1.09946271	     25.07252717	     25.07252717	      4.38625342	    -12.27639098	      2.22728989	     -8.18001977	      4.05142443	      4.11916414	     29.17287165	    -15.93566296	     -5.79704916	    103.70317857	     44.18228502	      0.00000000	      0.00000000	     -4.83085835	     -7.83257168	     -9.85851778	     26.32113037	     46.39029467	      0.00000000	      0.00000000
     41.24750000	     -2.17530521	     -4.59983078	      9.20446400	      1.09111825	      0.92090335	      0.43921808	     -1.54244067	      1.10028837	    -16.34370407	     15.80371548	     15.80371548	     17.89602495	     -0.99408783	     -4.87280320	     26.29514710	     -5.47952605	      1.28250435	     25.59431818	     25.59431818	      4.78210958	    -12.81762298	      2.25141150	     -7.98901358	      3.82660083	      4.54689331	     28.31886796	    -16.42028414	     -6.07321354	    101.47361027	     44.27124542	      0.00000000	      0.00000000	     -3.81462151	     -7.99371499	     -9.85602948	     26.64304427	     46.40311887	      0.00000000	      0.00000000
     41.26071429	     -2.17254102	     -4.49215743	      9.21085048	      1.09131875	      0.92132267	      0.43573850	     -1.32684247	      0.57208435	    -16.35002167	     17.05441204	     17.05441204	     17.97806843	     -1.22374048	     -4.54367817	     26.07440320	     -5.17385049	      1.36523539	     25.96784416	     25.96784416	      5.35570810	    -12.97221373	      2.28438491	     -7.98024364	      3.70737313	      4.55228443	     27.62639782	    -16.41211265	     -6.11205255	     99.75268897	     44.33665929	      0.00000000	      0.00000000	     -2.87445997	     -8.11881100	     -9.80955220	     26.92261586	     46.40634809	      0.00000000	      0.00000000
     41.27392857	     -2.17263297	     -4.41684375	      9.14835037	      1.09143401	      0.92184428	      0.43226360	     -0.97407463	      0.02679120	    -16.29555380	     18.52271543	     18.52271543	     17.96716030	     -1.47666903	     -4.51905019	     25.80784354	     -4.95264346	      1.26696181	     26.25694678	     26.25694678	      5.95188423	    -12.95482255	      2.30139141	     -7.98534801	      3.65492903	      4.60320817	     26.89075889	    -16.47517776	     -6.05058922	     97.93972542	     44.40004818	      0.00000000	      0.00000000	     -1.93330705	     -8.22439656	     -9.75376122	     27.31842100	     46.40735154	      0.00000000	      0.00000000
     41.28714286	     -2.16872852	     -4.35422289	      9.01268887	      1.09147440	      0.92246359	      0.42886202	     -0.43041189	     -0.56596827	    -16.17757064	     20.32383212	     20.32383212	     17.80959955	     -1.83961220	     -4.77491111	     25.47041162	     -4.80310173	      0.99900068	     26.44879374	     26.44879374	      6.51975689	    -12.80965499	      2.28433864	     -7.99180949	      3.58782075	      4.70975409	     26.12540464	    -16.54806954	     -5.91679217	     95.98888900	     44.46375054	      0.00000000	      0.00000000	     -0.96746239	     -8.30914402	     -9.68679227	     27.81738230	     46.40668737	      0.00000000	      0.00000000
